<?xml version="1.0" standalone="no"?>
<!DOCTYPE svg PUBLIC "-//W3C//DTD SVG 20010904//EN"
 "http://www.w3.org/TR/2001/REC-SVG-20010904/DTD/svg10.dtd">
<svg version="1.0" xmlns="http://www.w3.org/2000/svg"
 width="469.000000pt" height="461.000000pt" viewBox="0 0 469.000000 461.000000"
 preserveAspectRatio="xMidYMid meet">

<g transform="translate(0.000000,461.000000) scale(0.100000,-0.100000)"
fill="#000000" stroke="none">
<path d="M3790 4019 c-76 -13 -170 -59 -224 -109 -115 -106 -155 -320 -95
-503 38 -114 79 -163 299 -357 259 -228 293 -276 298 -420 3 -76 1 -89 -20
-120 -34 -50 -81 -72 -142 -66 -99 11 -155 92 -178 258 -6 46 -12 84 -13 86
-1 1 -64 -10 -140 -24 l-137 -27 7 -65 c24 -223 123 -384 271 -441 87 -33 200
-46 292 -32 235 35 372 197 372 440 0 224 -76 347 -374 609 -228 201 -256 242
-256 366 0 108 48 166 142 173 59 5 104 -16 134 -62 21 -32 44 -126 44 -182 0
-51 -8 -50 156 -21 143 25 135 14 108 146 -35 174 -125 293 -252 333 -78 24
-213 32 -292 18z"/>
<path d="M740 3115 l0 -895 380 0 380 0 0 110 0 110 -220 0 -220 0 0 785 0
785 -160 0 -160 0 0 -895z"/>
<path d="M1680 3115 l0 -895 160 0 160 0 0 895 0 895 -160 0 -160 0 0 -895z"/>
<path d="M2280 3115 l0 -895 135 0 135 0 0 532 c0 304 4 528 9 522 5 -5 104
-244 222 -531 l213 -523 108 0 108 0 0 895 0 895 -135 0 -135 0 -2 -507 -3
-507 -215 505 -215 504 -113 3 -112 3 0 -896z"/>
</g>
</svg>
